<?xml version="1.0" standalone="no"?>
<!DOCTYPE svg PUBLIC "-//W3C//DTD SVG 20010904//EN"
 "http://www.w3.org/TR/2001/REC-SVG-20010904/DTD/svg10.dtd">
<svg version="1.0" xmlns="http://www.w3.org/2000/svg"
 width="521.000000pt" height="521.000000pt" viewBox="0 0 521.000000 521.000000"
 preserveAspectRatio="xMidYMid meet">
<metadata>
Created by potrace 1.14, written by Peter Selinger 2001-2017
</metadata>
<g transform="translate(0.000000,521.000000) scale(0.100000,-0.100000)"
fill="#000000" stroke="none">
<path d="M2429 5206 c-2 -2 -33 -6 -69 -10 -382 -33 -756 -157 -1095 -361 -72
-43 -132 -81 -135 -84 -3 -3 -27 -22 -55 -41 -27 -19 -55 -39 -62 -45 -6 -5
-39 -32 -74 -60 -102 -82 -290 -276 -385 -399 -114 -146 -201 -286 -285 -456
-60 -121 -151 -351 -163 -412 -3 -13 -11 -44 -19 -70 -8 -27 -13 -48 -11 -48
2 0 0 -10 -5 -23 -5 -13 -12 -39 -15 -58 -3 -19 -8 -45 -11 -59 -3 -14 -8 -43
-11 -65 -3 -22 -7 -51 -10 -65 -28 -168 -25 -533 5 -725 5 -33 12 -78 16 -100
3 -22 17 -83 30 -135 14 -52 27 -106 31 -120 3 -14 9 -34 14 -45 4 -11 22 -63
40 -115 28 -80 140 -321 198 -425 152 -271 468 -616 727 -795 20 -14 42 -30
48 -36 24 -21 213 -132 304 -177 133 -67 379 -164 463 -182 8 -2 62 -15 120
-29 58 -13 125 -27 150 -31 25 -3 52 -8 60 -10 103 -27 574 -27 750 0 421 63
793 214 1150 465 19 14 37 27 40 30 3 3 25 21 50 40 110 84 283 253 383 373
170 205 312 437 411 674 26 63 101 283 111 325 37 167 46 209 50 243 3 22 7
47 10 55 18 67 28 522 13 645 -21 176 -48 307 -93 465 -84 292 -240 598 -430
846 -90 117 -99 127 -225 254 -386 390 -852 631 -1415 734 -16 3 -54 9 -84 12
-30 3 -64 8 -75 11 -24 5 -442 14 -447 9z"/>
</g>
</svg>
